<?xml version="1.0" encoding="UTF-8"?>
<svg id="Layer_1" xmlns="http://www.w3.org/2000/svg" version="1.1" viewBox="0 0 1024 1024">
  <!-- Generator: Adobe Illustrator 29.7.1, SVG Export Plug-In . SVG Version: 2.1.1 Build 8)  -->
  <defs>
    <style>
      .st0 {
        fill: #fff;
      }
    </style>
  </defs>
  <path class="st0" d="M512,85.3c-115.9,0-130.4.5-175.9,2.6-45.4,2.1-76.4,9.3-103.6,19.8-28.5,10.7-54.3,27.5-75.6,49.2-21.7,21.3-38.5,47.1-49.2,75.6-10.5,27.1-17.7,58.2-19.8,103.6-2.1,45.5-2.6,60-2.6,175.9s.5,130.4,2.6,175.9c2.1,45.4,9.3,76.4,19.8,103.6,10.7,28.5,27.5,54.3,49.2,75.6,21.3,21.7,47.1,38.5,75.6,49.2,27.1,10.5,58.2,17.7,103.6,19.8,45.5,2,60,2.6,175.9,2.6s130.4-.5,175.9-2.6c45.4-2.1,76.4-9.3,103.6-19.8,28.5-10.7,54.3-27.5,75.6-49.2,21.7-21.3,38.5-47.1,49.2-75.6,10.5-27.1,17.7-58.2,19.8-103.6,2-45.5,2.6-60,2.6-175.9s-.5-130.4-2.6-175.9c-2.1-45.4-9.3-76.4-19.8-103.6-10.7-28.5-27.5-54.3-49.2-75.6-21.3-21.7-47.1-38.5-75.6-49.2-27.1-10.5-58.2-17.7-103.6-19.8-45.5-2-60-2.6-175.9-2.6M512,162.2c113.9,0,127.4.4,172.4,2.5,41.6,1.9,64.2,8.8,79.3,14.7,19.9,7.8,34.1,17,49.1,31.9,14.9,14.9,24.1,29.2,31.9,49.1,5.8,15.1,12.8,37.6,14.7,79.2,2,45,2.5,58.5,2.5,172.4s-.4,127.4-2.5,172.4c-1.9,41.6-8.9,64.2-14.7,79.3-6.8,18.5-17.7,35.3-31.9,49.1-14.9,14.9-29.2,24.1-49.1,31.9-15.1,5.8-37.6,12.8-79.2,14.7-45,2-58.5,2.5-172.4,2.5s-127.4-.4-172.4-2.5c-41.6-1.9-64.2-8.9-79.3-14.7-18.5-6.8-35.3-17.7-49.1-31.9-14.2-13.8-25.1-30.5-31.9-49.1-5.8-15.1-12.8-37.6-14.7-79.2-2-45-2.5-58.5-2.5-172.4s.4-127.4,2.5-172.4c1.9-41.6,8.8-64.2,14.7-79.3,7.8-19.9,17-34.1,31.9-49.1,14.9-14.9,29.2-24.1,49.1-31.9,15.1-5.8,37.6-12.8,79.2-14.7,45-2,58.5-2.5,172.4-2.5M512,654.2c-78.5,0-142.2-63.7-142.2-142.2s63.7-142.2,142.2-142.2h0c78.5,0,142.2,63.7,142.2,142.2s-63.7,142.2-142.2,142.2M512,292.9c-121,0-219.1,98.1-219.1,219.1s98.1,219.1,219.1,219.1,219.1-98.1,219.1-219.1-98.1-219.1-219.1-219.1M791,284.2c0,28.3-22.9,51.2-51.2,51.2s-51.2-22.9-51.2-51.2,22.9-51.2,51.2-51.2,51.2,22.9,51.2,51.2"/>
</svg>