<?xml version="1.0" encoding="UTF-8"?>
<svg id="Flat" xmlns="http://www.w3.org/2000/svg" version="1.1" viewBox="0 0 800 800">
  <!-- Generator: Adobe Illustrator 29.8.3, SVG Export Plug-In . SVG Version: 2.1.1 Build 3)  -->
  <defs>
    <style>
      .st0 {
        fill: #fff;
      }
    </style>
  </defs>
  <path class="st0" d="M732.3,218.1c-6-23.3-22.9-42.3-45.3-51.1-107.1-41.2-277.6-40.8-287-40.8-9.3,0-179.9-.4-287,40.8-22.4,8.7-39.3,27.8-45.3,51.1-8.1,31-17.7,87.8-17.7,181.9s9.6,150.9,17.7,181.9c6,23.3,22.9,42.3,45.3,51.1,102.5,39.4,263.2,40.8,284.9,40.8,1.9,0,2.2,0,4.1,0,21.7,0,182.4-1.4,284.9-40.8,22.4-8.7,39.3-27.8,45.3-51.1,8.1-31,17.7-87.8,17.7-181.9s-9.6-150.9-17.7-181.9ZM506.9,410.4l-150,100c-5.7,3.8-13.5,2.3-17.3-3.5-1.4-2.1-2.1-4.5-2.1-6.9v-200c0-6.9,5.6-12.5,12.5-12.5,2.5,0,4.9.7,6.9,2.1l150,100c5.7,3.8,7.3,11.6,3.5,17.3-.9,1.4-2.1,2.6-3.5,3.5Z"/>
</svg>